<?xml version="1.0" encoding="UTF-8" standalone="no"?>
<svg
   xmlns:dc="http://purl.org/dc/elements/1.1/"
   xmlns:cc="http://creativecommons.org/ns#"
   xmlns:rdf="http://www.w3.org/1999/02/22-rdf-syntax-ns#"
   xmlns:svg="http://www.w3.org/2000/svg"
   xmlns="http://www.w3.org/2000/svg"
   xmlns:sodipodi="http://sodipodi.sourceforge.net/DTD/sodipodi-0.dtd"
   xmlns:inkscape="http://www.inkscape.org/namespaces/inkscape"
   inkscape:version="1.0 (4035a4fb49, 2020-05-01)"
   sodipodi:docname="logo (1).svg"
   id="svg8"
   version="1.1"
   viewBox="0 0 180 64"
   height="64"
   width="180">
  <metadata
     id="metadata14">
    <rdf:RDF>
      <cc:Work
         rdf:about="">
        <dc:format>image/svg+xml</dc:format>
        <dc:type
           rdf:resource="http://purl.org/dc/dcmitype/StillImage" />
        <dc:title>logo</dc:title>
      </cc:Work>
    </rdf:RDF>
  </metadata>
  <defs
     id="defs12" />
  <sodipodi:namedview
     inkscape:current-layer="svg8"
     inkscape:window-maximized="1"
     inkscape:window-y="-9"
     inkscape:window-x="-9"
     inkscape:cy="-36.345073"
     inkscape:cx="143.44723"
     inkscape:zoom="2.3333333"
     showgrid="false"
     id="namedview10"
     inkscape:window-height="1001"
     inkscape:window-width="1920"
     inkscape:pageshadow="2"
     inkscape:pageopacity="0"
     guidetolerance="10"
     gridtolerance="10"
     objecttolerance="10"
     borderopacity="1"
     bordercolor="#666666"
     pagecolor="#ffffff" />
  <title
     id="title2">logo</title>
  <rect
     y="2.6509714"
     x="2.4173999"
     height="58.70319"
     width="175.80305"
     id="rect849"
     style="fill:#05386b;fill-opacity:1;stroke:#2f2f41;stroke-width:4.08021;stroke-miterlimit:4;stroke-dasharray:none;stroke-dashoffset:0;stroke-opacity:1" />
  <rect
     y="4.9579296"
     x="4.4583764"
     height="54.089333"
     width="46.826542"
     id="rect851"
     style="fill:#ffffff;fill-opacity:0.986945;stroke:#000000;stroke-width:2.57996;stroke-miterlimit:4;stroke-dasharray:0, 28.3796;stroke-dashoffset:0" />
  <text
     transform="scale(0.98730445,1.0128588)"
     id="text855"
     y="37.273811"
     x="115.96456"
     style="font-size:16.7184px;line-height:1.25;font-family:serif;-inkscape-font-specification:serif;text-align:center;letter-spacing:0px;text-anchor:middle;fill:#ffffff;stroke-width:1.13736;stroke-miterlimit:4;stroke-dasharray:none"
     xml:space="preserve"><tspan
       style="font-style:normal;font-variant:normal;font-weight:normal;font-stretch:normal;font-size:16.7184px;font-family:Rockwell;-inkscape-font-specification:Rockwell;fill:#ffffff;stroke-width:1.13736;stroke-miterlimit:4;stroke-dasharray:none"
       y="37.273811"
       x="115.96456"
       id="tspan853"
       sodipodi:role="line">DOUGLAS C.</tspan></text>
  <g
     transform="matrix(5.0355089,0,0,5.1658423,-514.54895,-652.15314)"
     style="font-size:9.88491px;line-height:1.25;font-family:serif;-inkscape-font-specification:serif;text-align:center;letter-spacing:0px;text-anchor:middle;fill:#2f2f41;fill-opacity:1;stroke-width:0.672473;stroke-miterlimit:4;stroke-dasharray:none"
     id="text855-0-0"
     aria-label="D">
    <path
       sodipodi:nodetypes="sccssccscccsscccsccccccss"
       id="path898"
       style="font-style:normal;font-variant:normal;font-weight:bold;font-stretch:normal;font-size:9.88491px;font-family:sans-serif;-inkscape-font-specification:'sans-serif Bold';fill:#2f2f41;fill-opacity:1;stroke-width:0.672473;stroke-miterlimit:4;stroke-dasharray:none"
       d="m 111.11465,132.44561 c 0,0.66929 -0.15284,1.2694 -0.45853,1.80033 -0.30568,0.52771 -0.69181,0.93314 -1.15838,1.2163 -0.35073,0.21237 -0.73525,0.36039 -1.15356,0.44405 -0.41831,0.0837 -0.91384,0.12549 -1.4866,0.12549 h -2.53398 v -7.18683 h 2.60638 c 0.58563,0 1.09081,0.0499 1.51555,0.14963 0.42475,0.0965 0.78192,0.2349 1.07151,0.41509 0.49553,0.30247 0.88488,0.71112 1.16804,1.22596 0.28638,0.51162 0.42957,1.11495 0.42957,1.80998 z m -1.91616,-0.0145 c 0,-0.47301 -0.0869,-0.87683 -0.26064,-1.21148 -0.17054,-0.33787 -0.44244,-0.60172 -0.8157,-0.79157 -0.18985,-0.0933 -0.38452,-0.15606 -0.58402,-0.18824 -0.19628,-0.0354 -0.49392,-0.0531 -0.89292,-0.0531 l -0.46819,-1.30067 v 7.14539 l 0.46819,-1.34631 c 0,0 0.76421,-0.0193 0.97015,-0.0579 0.20593,-0.0418 0.40704,-0.11581 0.60332,-0.22203 0.33787,-0.19306 0.58563,-0.45048 0.7433,-0.77225 0.15767,-0.32499 0.23651,-0.7256 0.23651,-1.20183 z" />
  </g>
</svg>
