<?xml version="1.0" encoding="UTF-8" standalone="no"?>
<svg
   xmlns:dc="http://purl.org/dc/elements/1.1/"
   xmlns:cc="http://creativecommons.org/ns#"
   xmlns:rdf="http://www.w3.org/1999/02/22-rdf-syntax-ns#"
   xmlns:svg="http://www.w3.org/2000/svg"
   xmlns="http://www.w3.org/2000/svg"
   xmlns:sodipodi="http://sodipodi.sourceforge.net/DTD/sodipodi-0.dtd"
   xmlns:inkscape="http://www.inkscape.org/namespaces/inkscape"
   inkscape:version="1.0 (4035a4fb49, 2020-05-01)"
   sodipodi:docname="logo-mobile.svg"
   id="svg9"
   version="1.1"
   viewBox="0 0 54 54"
   height="54px"
   width="54px">
  <metadata
     id="metadata15">
    <rdf:RDF>
      <cc:Work
         rdf:about="">
        <dc:format>image/svg+xml</dc:format>
        <dc:type
           rdf:resource="http://purl.org/dc/dcmitype/StillImage" />
      </cc:Work>
    </rdf:RDF>
  </metadata>
  <defs
     id="defs13" />
  <sodipodi:namedview
     inkscape:current-layer="logo-mobile"
     inkscape:window-maximized="1"
     inkscape:window-y="-9"
     inkscape:window-x="-9"
     inkscape:cy="4.9476582"
     inkscape:cx="3.5463188"
     inkscape:zoom="2.7171233"
     showgrid="false"
     id="namedview11"
     inkscape:window-height="1001"
     inkscape:window-width="1920"
     inkscape:pageshadow="2"
     inkscape:pageopacity="0"
     guidetolerance="10"
     gridtolerance="10"
     objecttolerance="10"
     borderopacity="1"
     bordercolor="#666666"
     pagecolor="#ffffff" />
  <title
     id="title2">logo-mobile</title>
  <g
     style="opacity:0.999"
     fill-rule="evenodd"
     fill="none"
     stroke-width="1"
     stroke="none"
     id="Page-1">
    <g
       id="logo-mobile">
      <rect
         style="stroke:#05386b;stroke-opacity:1"
         height="50"
         width="50"
         y="2"
         x="2"
         fill-rule="nonzero"
         stroke-width="4"
         stroke="#E5261F"
         id="Rectangle-6" />
    </g>
  </g>
  <g
     aria-label="D"
     id="text855-0-0"
     style="font-size:9.88491px;line-height:1.25;font-family:serif;-inkscape-font-specification:serif;text-align:center;letter-spacing:0px;text-anchor:middle;fill:#05386b;stroke-width:0.672473;stroke-miterlimit:4;stroke-dasharray:none;fill-opacity:1"
     transform="matrix(3.7795276,0,0,3.7795276,-380.12741,-473.55446)">
    <path
       d="m 111.11465,132.44561 c 0,0.66929 -0.15284,1.2694 -0.45853,1.80033 -0.30568,0.52771 -0.69181,0.93314 -1.15838,1.2163 -0.35073,0.21237 -0.73525,0.36039 -1.15356,0.44405 -0.41831,0.0837 -0.91384,0.12549 -1.4866,0.12549 h -2.53398 v -7.18683 h 2.60638 c 0.58563,0 1.09081,0.0499 1.51555,0.14963 0.42475,0.0965 0.78192,0.2349 1.07151,0.41509 0.49553,0.30247 0.88488,0.71112 1.16804,1.22596 0.28638,0.51162 0.42957,1.11495 0.42957,1.80998 z m -1.91616,-0.0145 c 0,-0.47301 -0.0869,-0.87683 -0.26064,-1.21148 -0.17054,-0.33787 -0.44244,-0.60172 -0.8157,-0.79157 -0.18985,-0.0933 -0.38452,-0.15606 -0.58402,-0.18824 -0.19628,-0.0354 -0.49392,-0.0531 -0.89292,-0.0531 l -0.46819,-1.30067 v 7.14539 l 0.46819,-1.34631 c 0,0 0.76421,-0.0193 0.97015,-0.0579 0.20593,-0.0418 0.40704,-0.11581 0.60332,-0.22203 0.33787,-0.19306 0.58563,-0.45048 0.7433,-0.77225 0.15767,-0.32499 0.23651,-0.7256 0.23651,-1.20183 z"
       style="font-style:normal;font-variant:normal;font-weight:bold;font-stretch:normal;font-size:9.88491px;font-family:sans-serif;-inkscape-font-specification:'sans-serif Bold';fill:#05386b;stroke-width:0.672473;stroke-miterlimit:4;stroke-dasharray:none;fill-opacity:1"
       id="path898"
       sodipodi:nodetypes="sccssccscccsscccsccccccss" />
  </g>
</svg>
