<svg id="Layer_1" data-name="Layer 1" xmlns="http://www.w3.org/2000/svg" xmlns:xlink="http://www.w3.org/1999/xlink" viewBox="0 0 150 150"><defs><style>.cls-1{fill:none;}.cls-2{fill:#9c9c9c;}.cls-3{fill:#537dbe;}.cls-4{fill:#fff;}.cls-5{clip-path:url(#clip-path);}</style><clipPath id="clip-path"><path class="cls-1" d="M36.29,105.43s13.68-18.16,26.33,0C76.25,125,91.18,119.75,91.18,119.75S56.89,126.28,36.29,105.43Z"/></clipPath></defs><title>earth_engine</title><circle class="cls-2" cx="75" cy="75" r="56.32"/><path class="cls-2" d="M128.54,57.66h13.17A8.29,8.29,0,0,1,150,65.95V84.05a8.29,8.29,0,0,1-8.29,8.29H128.54a0,0,0,0,1,0,0V57.66A0,0,0,0,1,128.54,57.66Z"/><path class="cls-2" d="M96.31,2h13.17a8.29,8.29,0,0,1,8.29,8.29V28.37a8.29,8.29,0,0,1-8.29,8.29H96.31a0,0,0,0,1,0,0V2A0,0,0,0,1,96.31,2Z" transform="translate(36.79 102.36) rotate(-60)"/><path class="cls-2" d="M32,2.37H45.21a8.29,8.29,0,0,1,8.29,8.29V28.76A8.29,8.29,0,0,1,45.21,37H32a0,0,0,0,1,0,0V2.37A0,0,0,0,1,32,2.37Z" transform="translate(47.09 66.6) rotate(-120)"/><path class="cls-2" d="M0,57.66H13.17a8.29,8.29,0,0,1,8.29,8.29V84.05a8.29,8.29,0,0,1-8.29,8.29H0a0,0,0,0,1,0,0V57.66A0,0,0,0,1,0,57.66Z" transform="translate(21.46 150) rotate(180)"/><path class="cls-2" d="M32.23,113.34H45.4a8.29,8.29,0,0,1,8.29,8.29v18.11A8.29,8.29,0,0,1,45.4,148H32.23a0,0,0,0,1,0,0V113.34A0,0,0,0,1,32.23,113.34Z" transform="translate(177.61 158.82) rotate(120)"/><path class="cls-2" d="M96.5,113h13.17a8.29,8.29,0,0,1,8.29,8.29v18.11a8.29,8.29,0,0,1-8.29,8.29H96.5a0,0,0,0,1,0,0V113a0,0,0,0,1,0,0Z" transform="translate(166.45 -27.72) rotate(60)"/><g id="g3378"><path id="path3337" class="cls-3" d="M48.37,56.18c-13.69,0-15.84,7.16-17.94,14.85q-.17,2-.17,4a44.61,44.61,0,0,0,3.39,17.12c.14-1.4,1.47-11.76,10-13.09a6,6,0,0,1,.92-.07c7.71,0,18.31,13.65,18.31,13.65s13,15.27,25.75,16.74c8,.92,16.81-2.67,22.65-8.17A44.76,44.76,0,0,1,79.65,119.5,44.77,44.77,0,0,0,119,83.29s-.14.3-.43.81l-.12.21-.07.11,0,0q-.2.34-.47.75l-.29.45h0l-.15.22-.06.09-.11.15-.13.18,0,.07-.07.1-.12.16-.2.26-.19.24v0l-.16.2-.28.34,0,0-.21.25-.1.12-.14.16-.19.21-.06.07-.11.12-.15.16-.19.2-.08.08-.12.12,0,0-.31.3,0,0-.06.06-.13.12-.16.15,0,0-.27.24-.14.13-.17.14-.26.22-.06,0-.16.13-.17.14-.27.21-.06,0,0,0-.31.23-.29.21-.06,0-.18.12-.18.12-.31.2-.06,0-.05,0-.29.17,0,0-.07,0-.32.18-.36.19,0,0-.35.17-.06,0-.05,0-.16.07h0l-.2.09-.09,0-.24.1,0,0-.27.11h0l-.2.08-.09,0-.13,0-.17.06-.28.09h0l-.21.06-.1,0-.13,0-.18,0-.33.08-.32.08-.6.12-.17,0a16,16,0,0,1-4.35.13C86.33,92.87,74.3,74.46,74.3,74.46l-.17-.26v0l-.35-.51-.64-.9,0,0a55.57,55.57,0,0,0-5.36-6.64,43.51,43.51,0,0,0-5.35-5.26l-.33-.25c-.25-.18-.5-.35-.74-.5L61.21,60,61,59.9c-3.37-1.95-4.23-2.59-8.19-3.41a23.63,23.63,0,0,0-4.49-.31Z"/><path id="path3211" class="cls-4" d="M75,30.25a44.93,44.93,0,0,0-10.58,1.26h.11c8.58-1.08,21.8,3.85,27.56,9.61,8.28,8.27,6.63,10.45,16.06,19.21,5.39,5,9.81,2.28,9.87,2.24a44.8,44.8,0,0,0-43-32.3Z"/><path id="path3269" class="cls-4" d="M57.71,38.9h-.84l-.44,0-.36,0h-.13l-.44,0h0L55,39h-.09l-.94.11h-.07l-.13,0-.48.08-.48.08-.15,0-.37.08-.14,0-.29.06-.26.06-.09,0-.37.09-.16,0-.27.07h0l-.47.14h0l-.43.14-.05,0-.39.13h0l-.43.15-.78.3-.08,0-.36.15h0l-.32.14-.06,0-.32.15-.13.06-.61.31-.11.06-.22.12-.31.18h0l-.56.34-.27.17-.26.17-.25.17L44,43l-.22.16-.21.15-.13.1-.15.12-.07.06-.21.17-.27.23-.23.21h0l-.1.1A44.57,44.57,0,0,0,30.31,71.46c2.14-7.86,4.12-15.28,18.06-15.28a23.63,23.63,0,0,1,4.49.31c4,.82,4.81,1.46,8.19,3.41l.17.1.14.09c.24.15.49.32.74.5l.33.25a43.51,43.51,0,0,1,5.35,5.26,55.57,55.57,0,0,1,5.36,6.64l0,0,.64.9.35.51v0l.17.26S86.33,92.87,101,94.4a16,16,0,0,0,4.35-.13l.17,0,.6-.12.32-.08.33-.08.18,0,.13,0,.1,0,.21-.06h0l.28-.09.17-.06.13,0,.09,0,.2-.08h0l.27-.11,0,0,.24-.1.09,0,.2-.09h0l.16-.07.05,0,.06,0,.35-.17,0,0,.36-.19.32-.18.07,0,0,0,.29-.17.05,0,.06,0,.31-.2.18-.12.18-.12.06,0,.29-.21.31-.23,0,0,.06,0,.27-.21.17-.14.16-.13.06,0,.26-.22.17-.14.14-.13.27-.24,0,0,.16-.15.13-.12.06-.06,0,0,.31-.3,0,0,.12-.12.08-.08.19-.2.15-.16.11-.12.06-.07.19-.21.14-.16.1-.12.21-.25,0,0,.28-.34.16-.2v0l.19-.24.2-.26.12-.16.07-.1,0-.07.13-.18.11-.15.06-.09.15-.22h0l.29-.45q.27-.41.47-.75l0,0,.07-.11.12-.21c.28-.5.42-.8.43-.81a45,45,0,0,0,.77-8.29q0-.79,0-1.58l0,.05,0,0,0,0,0,0-.05.06-.12.12,0,.05-.09.09-.06.05-.11.11-.06.06-.13.12-.23.19-.25.2-.28.2-.47.31-.17.11a12.28,12.28,0,0,1-3.73,1.47l-.3.06-.3.06-.63.1-.33,0-.68.06h0l-.71,0h-.37q-.55,0-1.15,0c-.39,0-.79-.07-1.21-.13h0l-.27,0-.17,0h-.07l-.36-.06-.42-.08h0l-.43-.09h0l-.44-.11h0l-.46-.12-.32-.09h0l-.32-.1-.56-.19-.08,0h0l-.32-.13-.54-.23-.1,0h0l-.31-.15q-.63-.3-1.24-.67l-.61-.38-.3-.2q-.76-.51-1.51-1.1l-.3-.24-.59-.49-.59-.51h0l-.29-.26h0l-.29-.27-.87-.84-.58-.59-.28-.3h0l-.14-.15L95,69.06l-.14-.15q-1-1.08-2-2.26h0l-.25-.3-.86-1.06c-1.29-1.61-2.55-3.3-3.8-5h0L86.89,58.8h0c-1.07-1.47-2.12-2.95-3.18-4.38h0L82.66,53h0q-.79-1.06-1.58-2.07h0c-.88-1.12-1.75-2.2-2.63-3.2h0l-.79-.88-.53-.56h0l-.53-.54-.27-.26-.53-.51-.53-.49L74.74,44l-.27-.22-.27-.22a15.37,15.37,0,0,0-3.82-2.31l-.27-.11h0l-.28-.1-.38-.13-.06,0-.33-.11-.11,0-.27-.09-.16,0-.22-.07-.22-.06-.16,0-.27-.08-.1,0-.32-.09h0l-.08,0L66.47,40h-.05l-.31-.08-.11,0-.25-.06-.35-.08-.21,0-.15,0-.26-.05-.16,0-.24,0h0l-.69-.13h-.12l-.32-.06h0l-.49-.08-.13,0-.12,0L62,39.17h-.1l-.41,0-.13,0h-.1L60.72,39l-.59,0h-.22l-.43,0-1,0h-.82Z"/><path id="path3165" class="cls-4" d="M44.58,79a6,6,0,0,0-.92.07c-9.16,1.42-10,13.25-10,13.25a44.82,44.82,0,0,0,77.66,8.89c-5.84,5.5-14.68,9.09-22.65,8.17C75.9,107.87,62.89,92.61,62.89,92.61S52.29,79,44.58,79Z"/><path id="path3185" class="cls-3" d="M42.06,44.61c-.88.39,11.1-11.7,22.43-13.12,8.58-1.08,21.8,3.85,27.56,9.61,8.28,8.27,6.63,10.45,16.06,19.21,5.43,5,9.88,2.23,9.88,2.23a37,37,0,0,1,1.74,10.87s-4.34,5.59-14.3,2.92C91.59,72.63,81.7,45,69.83,41,51,34.65,42.06,44.61,42.06,44.61Z"/><g class="cls-5"><path id="path3165-2" data-name="path3165" class="cls-3" d="M44.58,79a6,6,0,0,0-.92.07c-9.16,1.42-10,13.25-10,13.25a44.82,44.82,0,0,0,77.66,8.89c-5.84,5.5-14.68,9.09-22.65,8.17C75.9,107.87,62.89,92.61,62.89,92.61S52.29,79,44.58,79Z"/></g></g></svg>