<?xml version="1.0" encoding="UTF-8" standalone="no"?>
<svg
   xmlns:dc="http://purl.org/dc/elements/1.1/"
   xmlns:cc="http://creativecommons.org/ns#"
   xmlns:rdf="http://www.w3.org/1999/02/22-rdf-syntax-ns#"
   xmlns:svg="http://www.w3.org/2000/svg"
   xmlns="http://www.w3.org/2000/svg"
   xmlns:sodipodi="http://sodipodi.sourceforge.net/DTD/sodipodi-0.dtd"
   xmlns:inkscape="http://www.inkscape.org/namespaces/inkscape"
   inkscape:version="1.0 (4035a4fb49, 2020-05-01)"
   sodipodi:docname="Esri-01.svg"
   xml:space="preserve"
   style="enable-background:new 0 0 512 512;"
   viewBox="0 0 512 512"
   y="0px"
   x="0px"
   id="Layer_1"
   version="1.1"><metadata
   id="metadata92"><rdf:RDF><cc:Work
       rdf:about=""><dc:format>image/svg+xml</dc:format><dc:type
         rdf:resource="http://purl.org/dc/dcmitype/StillImage" /></cc:Work></rdf:RDF></metadata><defs
   id="defs90" /><sodipodi:namedview
   inkscape:current-layer="XMLID_1_"
   inkscape:window-maximized="1"
   inkscape:window-y="-9"
   inkscape:window-x="-9"
   inkscape:cy="266.42179"
   inkscape:cx="198.59767"
   inkscape:zoom="0.78222656"
   showgrid="false"
   id="namedview88"
   inkscape:window-height="1001"
   inkscape:window-width="1920"
   inkscape:pageshadow="2"
   inkscape:pageopacity="0"
   guidetolerance="10"
   gridtolerance="10"
   objecttolerance="10"
   borderopacity="1"
   bordercolor="#666666"
   pagecolor="#ffffff" />
<style
   id="style52"
   type="text/css">
	.st0{fill:#231F20;}
	.st1{fill:url(#XMLID_3_);}
	.st2{fill:url(#XMLID_4_);}
	.st3{fill:url(#XMLID_5_);}
	.st4{fill:url(#XMLID_6_);}
</style>
<g
   id="XMLID_1_">
	
	
		<radialGradient
   gradientUnits="userSpaceOnUse"
   gradientTransform="matrix(41.685869,0,0,-41.685869,28051.209,32734.735)"
   r="3.3146"
   cy="779.8578"
   cx="-668.1949"
   id="XMLID_3_">
		<stop
   id="stop55"
   style="stop-color:#BFE6F9"
   offset="0" />
		<stop
   id="stop57"
   style="stop-color:#1478C7"
   offset="1" />
	</radialGradient>
	<path
   style="fill:url(#XMLID_3_);stroke-width:2.52449"
   d="m 64.474324,261.90576 c 0,107.66942 87.120096,194.78952 194.789536,194.78952 107.66943,0 194.78953,-87.1201 194.78953,-194.78952 0,-107.66944 -87.1201,-194.789535 -194.78953,-194.789535 C 151.59442,67.141473 64.474324,154.23632 64.474324,261.90576"
   class="st1"
   id="XMLID_10_" />
	
		<radialGradient
   gradientUnits="userSpaceOnUse"
   gradientTransform="matrix(51.141594,0,0,-51.141594,34696.65,40271.916)"
   r="3.3146"
   cy="783.0086"
   cx="-674.7427"
   id="XMLID_4_">
		<stop
   id="stop61"
   style="stop-color:#A6D71C"
   offset="0" />
		<stop
   id="stop63"
   style="stop-color:#23A03D"
   offset="0.9607" />
		<stop
   id="stop65"
   style="stop-color:#23A03D"
   offset="1" />
	</radialGradient>
	<path
   style="fill:url(#XMLID_4_);stroke-width:2.52449"
   d="m 177.09175,108.56832 c -14.86924,0.70685 -29.38504,2.474 -43.9261,4.59457 -40.719994,34.35829 -66.924185,85.35295 -68.691326,142.35591 11.334952,12.04181 26.557618,39.30628 44.279526,55.2358 2.474,-1.06027 4.948,-1.76713 7.44724,-2.82742 -8.50752,-9.92124 -20.549334,-23.02333 -22.316476,-29.38505 -8.860954,-29.73847 1.413714,-57.73505 23.376766,-59.85562 19.84247,-2.12057 36.83228,-31.53086 50.64123,-50.99466 28.67819,-39.65972 72.95773,-33.29801 70.83716,-53.11525 -2.474,-11.68838 -9.56781,-15.222657 -18.0501,-15.222657 -13.15259,0.706857 -30.49582,8.507517 -43.59792,9.214377"
   class="st2"
   id="XMLID_11_" />
	
		<radialGradient
   gradientUnits="userSpaceOnUse"
   gradientTransform="matrix(65.000531,0,0,-65.000531,44452.879,51314.618)"
   r="3.3146"
   cy="786.1179"
   cx="-680.3145"
   id="XMLID_5_">
		<stop
   id="stop69"
   style="stop-color:#A6D71C"
   offset="0" />
		<stop
   id="stop71"
   style="stop-color:#23A03D"
   offset="0.9607" />
		<stop
   id="stop73"
   style="stop-color:#23A03D"
   offset="1" />
	</radialGradient>
	<path
   style="fill:url(#XMLID_5_);stroke-width:2.52449"
   d="m 124.65813,305.83186 c -2.82743,0.70685 -5.65485,1.41371 -8.50752,2.47399 -2.47401,0.70686 -4.24115,1.41371 -7.44725,2.82743 -7.09381,3.18085 -12.395236,8.1541 -13.455522,18.40352 -2.120571,18.75695 15.929522,33.65143 30.798752,38.246 19.13563,5.65485 20.90278,-1.06028 30.79876,12.74867 7.09382,9.56781 8.50754,27.26447 12.04182,38.95285 2.12057,6.38697 4.59457,13.10211 8.1541,19.48906 13.80895,6.38695 28.32476,11.33495 43.54742,14.16237 3.88772,-22.31647 2.12057,-52.76181 7.09381,-65.8639 10.27467,-26.91105 15.92953,-38.59943 2.12057,-66.21733 -30.44533,-8.50752 -40.01314,-11.33496 -70.83715,-17.69666 -6.38695,-1.41372 -10.27467,-1.76715 -13.80895,-1.76715 -4.89751,-0.37867 -9.51732,1.03504 -20.49884,4.24115"
   class="st3"
   id="XMLID_12_" />
	
		<radialGradient
   gradientUnits="userSpaceOnUse"
   gradientTransform="matrix(85.91819,0,0,-85.91819,59161.653,67957.152)"
   r="3.3146"
   cy="789.5015"
   cx="-685.6962"
   id="XMLID_6_">
		<stop
   id="stop77"
   style="stop-color:#A6D71C"
   offset="0" />
		<stop
   id="stop79"
   style="stop-color:#23A03D"
   offset="0.9607" />
		<stop
   id="stop81"
   style="stop-color:#23A03D"
   offset="1" />
	</radialGradient>
	<path
   style="fill:url(#XMLID_6_);stroke-width:2.52449"
   d="m 314.14624,150.70204 c -8.86096,12.74866 -40.72001,16.28295 -50.99468,30.79876 -7.80066,11.33495 0.35344,33.65143 -6.74037,46.40009 -3.18086,6.00828 -1.76715,23.02334 2.12057,28.67819 12.0418,17.69667 32.59114,7.80067 47.8138,14.16239 18.40352,7.80066 20.90277,29.38504 36.12544,44.98638 15.57609,15.92953 -19.84248,40.01315 8.86095,97.7482 3.18085,6.00827 6.74038,10.62809 10.6281,13.80895 19.48904,-12.04182 36.47885,-27.61791 50.64124,-45.33982 4.24114,-29.03162 -5.30143,-38.246 6.74039,-64.80362 7.44723,-16.28294 20.54932,-44.63296 34.35828,-64.09676 -2.474,-53.82209 -26.55762,-101.98934 -63.74333,-135.64076 -3.53428,1.06028 -7.80068,1.06028 -14.16239,0 -5.30142,-1.06029 -9.92123,-1.41373 -14.16238,-1.41373 -28.72868,0 -37.2362,19.84249 -47.48562,34.71173"
   class="st4"
   id="XMLID_13_" />
	<path
   style="stroke-width:2.52449"
   d="m 236.92213,468.7371 c -6.38696,-3.53428 -14.51581,-9.56781 -21.96305,-14.51581 -3.18085,2.82743 -5.65485,6.74038 -8.15409,10.27467 8.53277,2.80218 20.22115,2.80218 30.11714,4.24114 m -33.97961,-23.37677 c -13.80895,-10.27466 -48.16724,-42.84057 -62.32962,-62.32962 -5.30143,3.18086 -10.98153,11.33496 -18.40353,12.74867 -2.82742,0.70686 -9.56781,1.41372 -11.68838,0.70686 -2.12057,-0.70686 0.35344,-4.94801 2.474,-7.80068 3.53429,-4.94799 9.21438,-10.98151 16.9898,-17.34323 -16.9898,-24.79048 -24.79047,-42.84057 -36.478849,-72.60429 -6.740385,4.24115 -11.334954,7.80067 -17.343236,12.39524 -1.767143,1.41372 -7.447242,2.474 -9.92124,0 -4.594569,-4.24114 -4.947998,-11.68839 1.767142,-16.28295 2.827427,-2.12057 16.282951,-11.33496 19.489051,-13.80895 -8.154097,-23.73019 -15.222666,-55.23581 -16.989807,-71.54401 -5.654855,4.948 -13.455524,10.27467 -15.576095,11.68838 -3.180855,1.06029 -5.301425,0 -6.008282,-0.35342 -3.180856,33.65143 0.353429,71.19058 10.628097,104.46333 17.343236,57.73505 65.863899,112.97086 131.020949,133.52019 1.7419,-1.76713 9.16389,-10.62809 12.37,-13.45552 M 68.715463,192.12889 c -0.706856,-12.39524 -1.767141,-29.73847 -1.767141,-29.73847 -9.214383,19.84248 -14.515809,31.88429 -17.343237,55.2358 6.71514,-10.95628 19.110378,-25.49733 19.110378,-25.49733 M 166.81709,49.419556 c 37.89257,-15.576087 75.07828,-24.437046 117.56542,-18.403519 4.59457,0.70686 4.24115,4.594568 -0.70685,4.594568 h -6.00828 c -34.35829,0.70686 -84.99953,11.334954 -111.20372,26.204191 -0.70685,17.343234 2.82743,45.339814 6.38696,66.924194 23.73018,-9.92124 60.56247,-20.19591 88.53381,-23.37677 -15.92953,-16.989807 -37.53915,-32.944567 -40.01315,-34.711713 -2.47399,-1.767146 -3.88771,-4.947993 -3.88771,-9.214383 0.35343,-7.447237 6.74038,-8.507523 10.27467,-7.800673 11.68839,-2.120571 23.02333,-4.594568 42.84057,-4.241132 83.23238,-3.534293 159.01753,43.547425 188.04915,97.041331 73.31115,116.15172 0,276.22953 -95.98106,319.07011 -41.07343,18.40352 -76.492,26.20418 -141.29562,16.98979 C 156.21423,473.28117 103.099,441.42214 61.646896,374.47269 10.652228,291.94716 39.330417,195.99136 46.42423,175.79545 77.22299,104.30193 127.5108,66.055939 166.81709,49.419556 M 80.757273,137.24651 c -1.060284,8.86096 0,24.79048 2.120571,43.9261 17.696666,-15.92952 51.701526,-36.47886 80.379716,-49.22753 -3.18086,-21.60962 -6.74039,-56.296085 -6.38696,-65.863893 -26.55762,14.515801 -55.23581,43.547423 -76.491999,73.664573 m 4.266385,58.77008 c 2.473999,17.34325 10.628096,54.52896 18.050094,73.31115 17.69666,-13.45552 57.73505,-37.89257 80.37971,-48.16724 -7.80067,-29.03161 -13.10209,-47.10695 -17.69666,-76.13857 -31.50562,14.51581 -65.510478,36.47886 -80.733144,50.99466 m 25.143904,89.94754 c 10.6281,30.09189 20.54934,52.7618 34.00487,71.544 15.57608,-13.45553 47.46038,-34.71172 71.544,-46.4001 -8.1541,-17.34324 -19.48905,-49.58095 -27.61791,-73.66457 -31.17743,15.95476 -54.5542,30.824 -77.93096,48.52067 m 43.9261,84.99952 c 16.63638,21.25619 42.13372,47.81382 60.20906,62.68306 16.98979,-13.80897 36.12542,-26.55763 52.40837,-34.35829 -13.80895,-21.60963 -34.35829,-52.40839 -42.84056,-71.89744 -30.82401,13.8342 -48.19249,25.14391 -69.77687,43.57267 m 70.8119,71.89743 c 6.38695,6.74039 32.59115,23.73019 32.59115,23.73019 17.34324,0.70686 38.95285,-1.41371 54.52895,-3.8877 -8.50752,-9.92125 -30.0919,-40.01315 -36.47886,-50.28782 -16.63637,7.06857 -37.53915,19.81723 -50.64124,30.44533 m 105.19544,15.5761 c 8.86095,-2.82743 31.15219,-12.74867 35.772,-15.92953 1.06029,-18.05009 1.06029,-38.24599 0.35343,-50.64123 -23.37676,0 -56.29609,6.74038 -75.07828,14.86923 10.60284,17.69667 25.49733,36.83229 38.95285,51.70153 m 48.16724,-22.66991 c 17.69666,-10.98152 34.00486,-23.73019 46.04667,-38.59943 -10.27466,-2.47399 -33.298,-5.65485 -44.63295,-4.948 -0.35343,0 -0.70687,27.26448 -1.41372,43.54743 m 51.34809,-45.69324 c 3.18086,-3.18085 8.1541,-10.27467 10.27467,-14.51581 1.76715,-16.63638 2.12057,-50.64124 1.41372,-60.56248 -20.19591,-8.1541 -50.99467,-14.5158 -73.66458,-16.28295 7.44725,26.91104 10.98153,66.92419 11.68839,79.67286 10.62809,1.08553 37.89257,6.74038 50.2878,11.68838 m 29.38505,-77.19886 c -1.06028,3.18085 -6.38695,6.38696 -9.21438,5.65485 0.35342,5.65485 -1.06029,33.298 -2.474,44.27953 3.88771,-7.80067 11.33496,-27.6179 13.45553,-35.772 l 3.18085,-12.39524 c 3.18085,-10.27467 13.1021,-46.40009 3.88771,-93.48181 -10.27467,-52.40838 -29.03161,-71.19057 -35.772,-79.31942 -16.98981,-9.21439 -42.48714,-17.34324 -42.48714,-17.34324 23.02334,31.15219 31.15219,46.04667 44.98639,83.23238 8.15409,4.24115 22.66991,12.39524 24.43704,14.51581 1.41371,1.76715 1.41371,4.948 -3.18086,4.948 -3.8877,0 -11.33495,-3.53428 -16.9898,-5.30142 6.00828,20.1959 10.6281,58.08847 10.27467,83.58581 1.03503,-0.7321 10.95628,4.21589 9.89599,7.39675 M 420.02328,126.26498 C 387.78556,86.958703 315.55995,53.660699 234.80156,58.633939 c 18.0501,12.041816 32.94458,29.738474 46.4001,44.632961 20.19591,-1.76714 62.68305,1.41371 78.61257,6.00827 -2.82743,-3.18084 -6.00828,-6.38695 -6.74038,-8.15409 -2.12058,-4.947994 3.18085,-6.00828 7.44724,-3.180848 5.65486,3.534278 12.04181,7.800658 16.98981,12.748668 8.86095,2.12057 31.88428,9.92123 42.51238,15.57608 m 20.54934,177.06763 c -1.41371,-25.49733 -5.30143,-59.14877 -14.5158,-82.52553 -24.79049,-9.92124 -58.79535,-16.28295 -88.53382,-16.63638 9.21438,21.60962 19.84247,57.38162 25.1439,80.37972 21.23095,2.49924 54.88238,8.8862 77.90572,18.78219 M 370.79576,122.37728 c -22.31648,-3.88772 -55.23581,-6.74039 -79.67286,-5.30143 16.63638,23.02333 28.67819,42.84057 40.01314,71.544 30.79876,0.70686 72.60429,9.92124 89.5941,16.63638 -9.92124,-27.28971 -29.38505,-61.97619 -49.93438,-82.87895 M 229.85357,307.24557 c 36.47885,-16.98981 76.84543,-24.43705 117.56542,-23.37676 -10.98152,-38.24601 -17.34323,-55.94267 -26.91104,-79.31944 -44.98638,2.12057 -83.58582,13.1021 -118.27229,29.73848 -0.35343,-0.35343 12.74867,41.07342 27.61791,72.95772 m 121.45314,-7.44724 c -46.04667,-0.70686 -86.05981,10.27467 -113.32429,23.73019 11.68838,25.1439 34.35829,58.08848 43.194,71.54401 14.86924,-5.65486 30.79876,-9.56782 43.19399,-11.68839 12.39524,-1.76714 29.03162,-3.88771 40.36658,-3.53429 -2.09534,-28.70343 -5.27618,-48.16724 -13.43028,-80.05152 m -154.39772,-81.44 c 33.298,-14.16238 69.07001,-25.49734 117.56543,-29.38505 -12.39524,-29.73847 -25.85076,-50.64123 -42.13371,-69.77686 -35.772,2.82743 -68.33791,12.39524 -96.68792,24.08362 4.26639,21.9378 12.04182,48.49543 21.2562,75.07829"
   class="st0"
   id="XMLID_33_" />
</g>
</svg>
