<?xml version="1.0" encoding="UTF-8" standalone="no"?>
<svg
   xmlns:dc="http://purl.org/dc/elements/1.1/"
   xmlns:cc="http://creativecommons.org/ns#"
   xmlns:rdf="http://www.w3.org/1999/02/22-rdf-syntax-ns#"
   xmlns:svg="http://www.w3.org/2000/svg"
   xmlns="http://www.w3.org/2000/svg"
   xmlns:sodipodi="http://sodipodi.sourceforge.net/DTD/sodipodi-0.dtd"
   xmlns:inkscape="http://www.inkscape.org/namespaces/inkscape"
   inkscape:version="1.0 (4035a4fb49, 2020-05-01)"
   sodipodi:docname="fire.svg"
   version="1.1"
   viewBox="0 0 150 150"
   data-name="Layer 1"
   id="Layer_1">
  <metadata
     id="metadata37">
    <rdf:RDF>
      <cc:Work
         rdf:about="">
        <dc:format>image/svg+xml</dc:format>
        <dc:type
           rdf:resource="http://purl.org/dc/dcmitype/StillImage" />
        <dc:title>earth_engine</dc:title>
      </cc:Work>
    </rdf:RDF>
  </metadata>
  <sodipodi:namedview
     inkscape:current-layer="Layer_1"
     inkscape:window-maximized="1"
     inkscape:window-y="-9"
     inkscape:window-x="-9"
     inkscape:cy="113.79145"
     inkscape:cx="177.13425"
     inkscape:zoom="2.7666667"
     showgrid="false"
     id="namedview35"
     inkscape:window-height="1001"
     inkscape:window-width="1920"
     inkscape:pageshadow="2"
     inkscape:pageopacity="0"
     guidetolerance="10"
     gridtolerance="10"
     objecttolerance="10"
     borderopacity="1"
     bordercolor="#666666"
     pagecolor="#ffffff" />
  <defs
     id="defs7">
    <style
       id="style2">.cls-1{fill:none;}.cls-2{fill:#9c9c9c;}.cls-3{fill:#537dbe;}.cls-4{fill:#fff;}.cls-5{clip-path:url(#clip-path);}</style>
    <clipPath
       id="clip-path">
      <path
         id="path4"
         d="M36.29,105.43s13.68-18.16,26.33,0C76.25,125,91.18,119.75,91.18,119.75S56.89,126.28,36.29,105.43Z"
         class="cls-1" />
    </clipPath>
  </defs>
  <title
     id="title9">earth_engine</title>
  <circle
     style="stroke-width:0.357595"
     r="20.139763"
     id="circle11"
     cy="105.85843"
     cx="116.27969"
     class="cls-2" />
  <path
     style="stroke-width:0.357595"
     id="path13"
     d="m 135.42532,99.65772 h 4.70953 a 2.9644645,2.9644645 0 0 1 2.96447,2.96447 v 6.47247 a 2.9644645,2.9644645 0 0 1 -2.96447,2.96447 h -4.70953 z"
     class="cls-2" />
  <path
     style="stroke-width:0.357595"
     id="path15"
     d="m 120.45533,86.173912 2.35477,-4.078571 a 2.9644645,2.9644645 0 0 1 4.04953,-1.085069 l 5.59914,3.232661 a 2.9644645,2.9644645 0 0 1 1.08506,4.049533 l -2.35476,4.078572 z"
     class="cls-2" />
  <path
     style="stroke-width:0.357595"
     id="path17"
     d="m 101.31163,92.520904 -2.361919,-4.09096 a 2.9644645,2.9644645 0 0 1 1.085069,-4.049533 l 5.60533,-3.236237 a 2.9644645,2.9644645 0 0 1 4.03404,1.094009 l 2.36192,4.090959 z"
     class="cls-2" />
  <path
     style="stroke-width:0.357595"
     id="path19"
     d="M 97.134028,112.05913 H 92.4245 a 2.9644645,2.9644645 0 0 1 -2.964465,-2.96447 v -6.47247 A 2.9644645,2.9644645 0 0 1 92.4245,99.65772 h 4.709528 z"
     class="cls-2" />
  <path
     style="stroke-width:0.357595"
     id="path21"
     d="m 112.11,125.54834 -2.35476,4.07857 a 2.9644645,2.9644645 0 0 1 -4.04954,1.08507 l -5.60842,-3.23803 a 2.9644645,2.9644645 0 0 1 -1.075778,-4.04416 l 2.354768,-4.07858 z"
     class="cls-2" />
  <path
     style="stroke-width:0.357595"
     id="path23"
     d="m 131.24115,119.21513 2.35476,4.07857 a 2.9644645,2.9644645 0 0 1 -1.08507,4.04953 l -5.60842,3.23803 a 2.9644645,2.9644645 0 0 1 -4.04954,-1.08507 l -2.35476,-4.07858 z"
     class="cls-2" />
  <g
     transform="matrix(0.35759523,0,0,0.35759523,89.460035,79.038782)"
     id="g3378">
    <path
       d="m 48.37,56.18 c -13.69,0 -15.84,7.16 -17.94,14.85 q -0.17,2 -0.17,4 a 44.61,44.61 0 0 0 3.39,17.12 c 0.14,-1.4 1.47,-11.76 10,-13.09 a 6,6 0 0 1 0.92,-0.07 c 7.71,0 18.31,13.65 18.31,13.65 0,0 13,15.27 25.75,16.74 8,0.92 16.81,-2.67 22.65,-8.17 A 44.76,44.76 0 0 1 79.65,119.5 44.77,44.77 0 0 0 119,83.29 c 0,0 -0.14,0.3 -0.43,0.81 l -0.12,0.21 -0.07,0.11 v 0 q -0.2,0.34 -0.47,0.75 l -0.29,0.45 v 0 l -0.15,0.22 -0.06,0.09 -0.11,0.15 -0.13,0.18 v 0.07 l -0.07,0.1 -0.12,0.16 -0.2,0.26 -0.19,0.24 v 0 l -0.16,0.2 -0.28,0.34 v 0 l -0.21,0.25 -0.1,0.12 -0.14,0.16 -0.19,0.21 -0.06,0.07 -0.11,0.12 -0.15,0.16 -0.19,0.2 -0.08,0.08 -0.12,0.12 v 0 l -0.31,0.3 v 0 l -0.06,0.06 -0.13,0.12 -0.16,0.15 v 0 l -0.27,0.24 -0.14,0.13 -0.17,0.14 -0.26,0.22 h -0.06 l -0.16,0.13 -0.17,0.14 -0.27,0.21 h -0.06 v 0 l -0.31,0.23 -0.29,0.21 h -0.06 l -0.18,0.12 -0.18,0.12 -0.31,0.2 h -0.06 -0.05 l -0.29,0.17 v 0 h -0.07 l -0.32,0.18 -0.36,0.19 v 0 l -0.35,0.17 h -0.06 -0.05 l -0.16,0.07 v 0 l -0.2,0.09 h -0.09 l -0.24,0.1 v 0 l -0.27,0.11 v 0 l -0.2,0.08 h -0.09 -0.13 l -0.17,0.06 -0.28,0.09 v 0 l -0.21,0.06 h -0.1 -0.13 -0.18 l -0.33,0.08 -0.32,0.08 -0.6,0.12 h -0.17 a 16,16 0 0 1 -4.35,0.13 C 86.33,92.87 74.3,74.46 74.3,74.46 L 74.13,74.2 v 0 l -0.35,-0.51 -0.64,-0.9 v 0 A 55.57,55.57 0 0 0 67.78,66.15 43.51,43.51 0 0 0 62.43,60.89 L 62.1,60.64 c -0.25,-0.18 -0.5,-0.35 -0.74,-0.5 L 61.21,60 61,59.9 c -3.37,-1.95 -4.23,-2.59 -8.19,-3.41 a 23.63,23.63 0 0 0 -4.49,-0.31 z"
       class="cls-3"
       id="path3337" />
    <path
       d="m 75,30.25 a 44.93,44.93 0 0 0 -10.58,1.26 h 0.11 c 8.58,-1.08 21.8,3.85 27.56,9.61 8.28,8.27 6.63,10.45 16.06,19.21 5.39,5 9.81,2.28 9.87,2.24 a 44.8,44.8 0 0 0 -43,-32.3 z"
       class="cls-4"
       id="path3211" />
    <path
       d="M 57.71,38.9 H 56.87 56.43 56.07 55.94 55.5 v 0 L 55,39 h -0.09 l -0.94,0.11 H 53.9 53.77 l -0.48,0.08 -0.48,0.08 h -0.15 l -0.37,0.08 h -0.14 l -0.29,0.06 -0.26,0.06 h -0.09 l -0.37,0.09 h -0.16 l -0.27,0.07 v 0 l -0.47,0.14 v 0 l -0.43,0.14 h -0.05 l -0.39,0.13 v 0 l -0.43,0.15 -0.78,0.3 h -0.08 l -0.36,0.15 v 0 l -0.32,0.14 h -0.06 l -0.32,0.15 -0.13,0.06 -0.61,0.31 -0.11,0.06 -0.22,0.12 -0.31,0.18 v 0 L 45.08,42 44.81,42.17 44.55,42.34 44.3,42.51 44,43 l -0.22,0.16 -0.21,0.15 -0.13,0.1 -0.15,0.12 -0.07,0.06 -0.21,0.17 -0.27,0.23 -0.23,0.21 v 0 l -0.1,0.1 A 44.57,44.57 0 0 0 30.31,71.46 C 32.45,63.6 34.43,56.18 48.37,56.18 a 23.63,23.63 0 0 1 4.49,0.31 c 4,0.82 4.81,1.46 8.19,3.41 l 0.17,0.1 0.14,0.09 c 0.24,0.15 0.49,0.32 0.74,0.5 l 0.33,0.25 a 43.51,43.51 0 0 1 5.35,5.26 55.57,55.57 0 0 1 5.36,6.64 v 0 l 0.64,0.9 0.35,0.51 v 0 l 0.17,0.26 c 0,0 12.03,18.46 26.7,19.99 a 16,16 0 0 0 4.35,-0.13 h 0.17 l 0.6,-0.12 0.32,-0.08 0.33,-0.08 h 0.18 0.13 0.1 l 0.21,-0.06 v 0 l 0.28,-0.09 0.17,-0.06 h 0.13 0.09 l 0.2,-0.08 v 0 l 0.27,-0.11 v 0 l 0.24,-0.1 h 0.09 l 0.2,-0.09 v 0 l 0.16,-0.07 h 0.05 0.06 l 0.35,-0.17 v 0 l 0.36,-0.19 0.32,-0.18 h 0.07 v 0 l 0.29,-0.17 h 0.05 0.06 l 0.31,-0.2 0.18,-0.12 0.18,-0.12 h 0.06 l 0.29,-0.21 0.31,-0.23 v 0 h 0.06 l 0.27,-0.21 0.17,-0.14 0.16,-0.13 h 0.06 l 0.26,-0.22 0.17,-0.14 0.14,-0.13 0.27,-0.24 v 0 l 0.16,-0.15 0.13,-0.12 0.06,-0.06 v 0 l 0.31,-0.3 v 0 l 0.12,-0.12 0.08,-0.08 0.19,-0.2 0.15,-0.16 0.11,-0.12 0.06,-0.07 0.19,-0.21 0.14,-0.16 0.1,-0.12 0.21,-0.25 v 0 l 0.28,-0.34 0.16,-0.2 v 0 l 0.19,-0.24 0.2,-0.26 0.12,-0.16 0.07,-0.1 v -0.07 l 0.13,-0.18 0.11,-0.15 0.06,-0.09 0.15,-0.22 v 0 l 0.29,-0.45 q 0.27,-0.41 0.47,-0.75 v 0 l 0.07,-0.11 0.12,-0.21 c 0.28,-0.5 0.42,-0.8 0.43,-0.81 a 45,45 0 0 0 0.77,-8.29 q 0,-0.79 0,-1.58 v 0.05 0 0 0 l -0.05,0.06 -0.12,0.12 v 0.05 l -0.09,0.09 -0.06,0.05 -0.11,0.11 -0.06,0.06 -0.13,0.12 -0.23,0.19 -0.25,0.2 -0.28,0.2 -0.47,0.31 -0.17,0.11 a 12.28,12.28 0 0 1 -3.73,1.47 l -0.3,0.06 -0.3,0.06 -0.63,0.1 h -0.33 l -0.68,0.06 v 0 h -0.71 -0.37 q -0.55,0 -1.15,0 c -0.39,0 -0.79,-0.07 -1.21,-0.13 v 0 h -0.27 -0.17 -0.07 l -0.36,-0.06 -0.42,-0.08 v 0 l -0.43,-0.09 v 0 l -0.44,-0.11 v 0 l -0.46,-0.12 -0.32,-0.09 v 0 l -0.32,-0.1 -0.56,-0.19 h -0.08 v 0 l -0.32,-0.13 -0.54,-0.23 h -0.1 v 0 l -0.31,-0.15 q -0.63,-0.3 -1.24,-0.67 l -0.61,-0.38 -0.3,-0.2 q -0.76,-0.51 -1.51,-1.1 L 98.79,73.6 98.2,73.11 97.61,72.6 v 0 l -0.29,-0.26 v 0 l -0.29,-0.27 -0.87,-0.84 -0.58,-0.59 -0.28,-0.3 v 0 L 95.16,70.19 95,69.06 94.86,68.91 q -1,-1.08 -2,-2.26 v 0 l -0.25,-0.3 -0.86,-1.06 c -1.29,-1.61 -2.55,-3.3 -3.8,-5 v 0 L 86.89,58.8 v 0 c -1.07,-1.47 -2.12,-2.95 -3.18,-4.38 v 0 L 82.66,53 v 0 q -0.79,-1.06 -1.58,-2.07 v 0 c -0.88,-1.12 -1.75,-2.2 -2.63,-3.2 v 0 l -0.79,-0.88 -0.53,-0.56 v 0 L 76.6,45.75 76.33,45.49 75.8,44.98 75.27,44.49 74.74,44 74.47,43.78 74.2,43.56 a 15.37,15.37 0 0 0 -3.82,-2.31 l -0.27,-0.11 v 0 l -0.28,-0.1 -0.38,-0.13 H 69.39 L 69.06,40.8 H 68.95 L 68.68,40.71 H 68.52 L 68.3,40.64 68.08,40.58 H 67.92 L 67.65,40.5 h -0.1 l -0.32,-0.09 v 0 H 67.15 L 66.47,40 H 66.42 L 66.11,39.92 H 66 L 65.75,39.86 65.4,39.78 h -0.21 -0.15 l -0.26,-0.05 h -0.16 -0.24 v 0 L 63.69,39.6 h -0.12 l -0.32,-0.06 v 0 L 62.76,39.46 H 62.63 62.51 L 62,39.17 h -0.1 -0.41 -0.13 -0.1 L 60.72,39 h -0.59 -0.22 -0.43 -1 -0.82 z"
       class="cls-4"
       id="path3269" />
    <path
       d="m 44.58,79 a 6,6 0 0 0 -0.92,0.07 c -9.16,1.42 -10,13.25 -10,13.25 a 44.82,44.82 0 0 0 77.66,8.89 c -5.84,5.5 -14.68,9.09 -22.65,8.17 C 75.9,107.87 62.89,92.61 62.89,92.61 62.89,92.61 52.29,79 44.58,79 Z"
       class="cls-4"
       id="path3165" />
    <path
       d="m 42.06,44.61 c -0.88,0.39 11.1,-11.7 22.43,-13.12 8.58,-1.08 21.8,3.85 27.56,9.61 8.28,8.27 6.63,10.45 16.06,19.21 5.43,5 9.88,2.23 9.88,2.23 a 37,37 0 0 1 1.74,10.87 c 0,0 -4.34,5.59 -14.3,2.92 C 91.59,72.63 81.7,45 69.83,41 51,34.65 42.06,44.61 42.06,44.61 Z"
       class="cls-3"
       id="path3185" />
    <g
       id="g31"
       clip-path="url(#clip-path)"
       class="cls-5">
      <path
         d="m 44.58,79 a 6,6 0 0 0 -0.92,0.07 c -9.16,1.42 -10,13.25 -10,13.25 a 44.82,44.82 0 0 0 77.66,8.89 c -5.84,5.5 -14.68,9.09 -22.65,8.17 C 75.9,107.87 62.89,92.61 62.89,92.61 62.89,92.61 52.29,79 44.58,79 Z"
         class="cls-3"
         data-name="path3165"
         id="path3165-2" />
    </g>
  </g>
  <path
     style="stroke-width:0.199787"
     id="path2"
     d="m 50.571336,109.86901 c -33.711591,0 -42.7187693,-35.142067 -38.647319,-58.167276 0.17721,-1.00213 1.490807,-1.290825 2.063196,-0.449319 1.772507,2.605219 3.349823,6.3682 5.963232,6.041546 3.928004,-0.491074 6.649297,-35.151652 29.92943,-44.904234 0.738809,-0.309468 1.511784,0.277704 1.430674,1.074454 -1.15117,11.294535 5.630186,27.464262 17.644352,27.464262 6.887044,0 11.599208,-5.496532 13.953895,-11.016633 0.715235,-1.676811 3.165216,-1.465432 3.575379,0.310867 4.201715,18.196963 15.433515,79.646333 -35.912839,79.646333 z"
     fill="#ff8f1f" />
  <path
     style="stroke-width:0.199787"
     id="path4-9"
     d="m 38.753162,75.982603 c 0.792753,-0.666093 1.996269,-0.208981 2.176273,0.81073 0.421154,2.386052 1.806071,6.48667 6.348822,6.48667 5.464559,0 9.173001,-15.036737 10.145563,-19.459013 0.160025,-0.72762 0.869073,-1.221693 1.59909,-1.073253 13.656413,2.776633 20.29632,47.121273 -9.730207,47.121273 -21.859052,0 -16.906941,-28.537324 -10.539541,-33.886407 z M 76.069501,27.959294 c 0.481283,-3.764377 -6.390576,6.531624 -6.390576,6.531624 0,0 5.239005,2.474559 6.390576,-6.531624 z M 6.8286602,84.099731 c 0.1448446,-1.602489 -1.9167533,-5.893109 -2.2817634,-4.19432 -0.8736663,4.064457 2.1369176,5.797007 2.2817634,4.19432 z"
     fill="#ffb636" />
  <path
     style="stroke-width:0.199787"
     id="path6"
     d="m 61.812527,79.532609 c -0.51205,-2.13572 -2.348487,2.824984 -2.117736,4.845623 0.230754,2.020442 3.342632,0.264117 2.117736,-4.845623 z"
     fill="#ffd469" />
</svg>
