<?xml version="1.0" encoding="UTF-8" standalone="no"?>
<svg
   xmlns:dc="http://purl.org/dc/elements/1.1/"
   xmlns:cc="http://creativecommons.org/ns#"
   xmlns:rdf="http://www.w3.org/1999/02/22-rdf-syntax-ns#"
   xmlns:svg="http://www.w3.org/2000/svg"
   xmlns="http://www.w3.org/2000/svg"
   xmlns:sodipodi="http://sodipodi.sourceforge.net/DTD/sodipodi-0.dtd"
   xmlns:inkscape="http://www.inkscape.org/namespaces/inkscape"
   inkscape:version="1.0 (4035a4fb49, 2020-05-01)"
   sodipodi:docname="location-not-found.svg"
   id="svg9"
   version="1.1"
   viewBox="0 0 24 24"
   height="24px"
   width="24px">
  <metadata
     id="metadata15">
    <rdf:RDF>
      <cc:Work
         rdf:about="">
        <dc:format>image/svg+xml</dc:format>
        <dc:type
           rdf:resource="http://purl.org/dc/dcmitype/StillImage" />
        <dc:title>ic_fluent_location_not_found_24_filled</dc:title>
      </cc:Work>
    </rdf:RDF>
  </metadata>
  <defs
     id="defs13" />
  <sodipodi:namedview
     inkscape:current-layer="ðŸ”-Product-Icons"
     inkscape:window-maximized="1"
     inkscape:window-y="-9"
     inkscape:window-x="-9"
     inkscape:cy="12"
     inkscape:cx="12"
     inkscape:zoom="34.583333"
     showgrid="false"
     id="namedview11"
     inkscape:window-height="1001"
     inkscape:window-width="1920"
     inkscape:pageshadow="2"
     inkscape:pageopacity="0"
     guidetolerance="10"
     gridtolerance="10"
     objecttolerance="10"
     borderopacity="1"
     bordercolor="#666666"
     pagecolor="#ffffff" />
  <!-- Uploaded to SVGRepo https://www.svgrepo.com -->
  <title
     id="title2">ic_fluent_location_not_found_24_filled</title>
  <desc
     id="desc4">Created with Sketch.</desc>
  <g
     fill-rule="evenodd"
     fill="none"
     stroke-width="1"
     stroke="none"
     id="ðŸ”-Product-Icons">
    <g
       style="fill:#05386b;fill-opacity:1"
       fill-rule="nonzero"
       fill="#212121"
       id="ic_fluent_location_not_found_24_filled">
      <path
         style="fill:#05386b;fill-opacity:1"
         id="ðŸŽ¨Color"
         d="M5.84301215,4.55890685 C9.24342264,1.15849636 14.7565774,1.15849636 18.1569879,4.55890685 C21.4893901,7.89130914 21.5560382,13.252791 18.356932,16.6663564 L18.1569879,16.8728826 C17.2419979,17.7878725 15.7116094,19.2826735 13.5641649,21.3589636 C12.6919186,22.2023085 11.3080914,22.2022001 10.4359799,21.3587188 L6.5863078,17.6101042 C6.30208268,17.3299283 6.0543257,17.0841961 5.84301215,16.8728826 C2.44260165,13.4724721 2.44260165,7.95931735 5.84301215,4.55890685 Z M15.0303301,7.68556462 L14.9462117,7.61294646 C14.6852237,7.41929806 14.3270092,7.41690733 14.0636206,7.6057743 L13.9696699,7.68556462 L12,9.6548947 L10.0303301,7.68556462 L9.94621165,7.61294646 C9.68522366,7.41929806 9.32700924,7.41690733 9.0636206,7.6057743 L8.96966991,7.68556462 L8.89705176,7.76968305 C8.70340335,8.03067105 8.70101263,8.38888546 8.8898796,8.65227411 L8.96966991,8.74622479 L10.939,10.7158947 L8.96966991,12.6855646 L8.89705176,12.7696831 C8.70340335,13.030671 8.70101263,13.3888855 8.8898796,13.6522741 L8.96966991,13.7462248 L9.05378835,13.8188429 C9.31477634,14.0124914 9.67299076,14.0148821 9.9363794,13.8260151 L10.0303301,13.7462248 L12,11.7768947 L13.9696699,13.7462248 L14.0537883,13.8188429 C14.3147763,14.0124914 14.6729908,14.0148821 14.9363794,13.8260151 L15.0303301,13.7462248 L15.1029482,13.6621064 C15.2965966,13.4011184 15.2989874,13.0429039 15.1101204,12.7795153 L15.0303301,12.6855646 L13.061,10.7158947 L15.0303301,8.74622479 L15.1029482,8.66210636 C15.2965966,8.40111836 15.2989874,8.04290395 15.1101204,7.7795153 L15.0303301,7.68556462 L14.9462117,7.61294646 L15.0303301,7.68556462 Z" />
    </g>
  </g>
</svg>
