<svg xmlns="http://www.w3.org/2000/svg" viewBox="0 0 150 150"><defs><style>.cls-1{fill:#005b99;}.cls-2{fill:#90c2e6;}.cls-3{fill:#e8f3fb;}.cls-4{fill:#e98300;}.cls-5{fill:#f2b566;}</style></defs><title>spatial-etl</title><g id="spatial-etl"><path class="cls-1" d="M105.58,80.6a8.481,8.481,0,0,1-6.31-2.69,8.987,8.987,0,0,1-2.41-6.089,8.447,8.447,0,0,1,2.57-6.06,4.262,4.262,0,0,0,0-6.031l-10.6-10.6a4.261,4.261,0,0,0-6.03,0,8.416,8.416,0,0,1-6.07,2.56,8.923,8.923,0,0,1-6.08-2.4,8.442,8.442,0,0,1-2.69-6.31,4.251,4.251,0,0,0-4.26-4.26H48.71a4.251,4.251,0,0,0-4.26,4.26,8.479,8.479,0,0,1-2.69,6.31,8.923,8.923,0,0,1-6.08,2.4,8.4,8.4,0,0,1-6.07-2.56,4.261,4.261,0,0,0-6.03,0l-10.6,10.6a4.262,4.262,0,0,0,0,6.031,8.394,8.394,0,0,1,2.56,6.06,8.931,8.931,0,0,1-2.4,6.089A8.481,8.481,0,0,1,6.83,80.6,4.252,4.252,0,0,0,2.57,84.86V99.849a4.257,4.257,0,0,0,4.26,4.261,8.481,8.481,0,0,1,6.31,2.69,8.925,8.925,0,0,1,2.4,6.08,8.418,8.418,0,0,1-2.56,6.07,4.26,4.26,0,0,0,0,6.029l10.6,10.6a4.261,4.261,0,0,0,6.03,0,8.463,8.463,0,0,1,6.07-2.569,8.984,8.984,0,0,1,6.08,2.41,8.48,8.48,0,0,1,2.69,6.309,4.258,4.258,0,0,0,4.26,4.261H63.7a4.264,4.264,0,0,0,4.26-4.261,8.443,8.443,0,0,1,2.69-6.309,8.984,8.984,0,0,1,6.08-2.41,8.463,8.463,0,0,1,6.07,2.569,4.261,4.261,0,0,0,6.03,0l10.6-10.6a4.26,4.26,0,0,0,0-6.029,8.47,8.47,0,0,1-2.57-6.07,8.982,8.982,0,0,1,2.41-6.08,8.481,8.481,0,0,1,6.31-2.69,4.257,4.257,0,0,0,4.26-4.261V84.86A4.258,4.258,0,0,0,105.58,80.6Zm.26,19.25a.265.265,0,0,1-.26.261,12.532,12.532,0,0,0-9.24,3.96,12.962,12.962,0,0,0-3.47,8.81,12.492,12.492,0,0,0,3.73,8.9l.08.19-.08.18-10.59,10.6-.19.079-.19-.079a12.5,12.5,0,0,0-8.9-3.731,12.959,12.959,0,0,0-8.81,3.471,12.53,12.53,0,0,0-3.96,9.239.258.258,0,0,1-.26.261H48.71a.258.258,0,0,1-.26-.261,12.53,12.53,0,0,0-3.96-9.239,13.029,13.029,0,0,0-8.81-3.48,12.531,12.531,0,0,0-8.9,3.74l-.19.079-.18-.079-10.61-10.6-.07-.18.07-.19a12.463,12.463,0,0,0,3.74-8.9,12.962,12.962,0,0,0-3.47-8.81,12.532,12.532,0,0,0-9.24-3.96.265.265,0,0,1-.26-.261V84.86a.252.252,0,0,1,.26-.261,12.535,12.535,0,0,0,9.24-3.959,12.989,12.989,0,0,0,3.47-8.82,12.439,12.439,0,0,0-3.74-8.89l-.07-.19.07-.19,10.61-10.6.18-.07.19.07a12.448,12.448,0,0,0,8.9,3.74,12.977,12.977,0,0,0,8.81-3.471,12.529,12.529,0,0,0,3.96-9.24.252.252,0,0,1,.26-.26H63.7a.258.258,0,0,1,.26.26,12.49,12.49,0,0,0,3.96,9.23,12.922,12.922,0,0,0,8.81,3.481,12.465,12.465,0,0,0,8.9-3.74l.19-.07.18.07,10.6,10.6.08.19-.08.19a12.469,12.469,0,0,0-3.73,8.89,12.989,12.989,0,0,0,3.47,8.82,12.535,12.535,0,0,0,9.24,3.959.252.252,0,0,1,.26.261Z"/><path class="cls-2" d="M105.58,84.6a12.535,12.535,0,0,1-9.24-3.959,12.989,12.989,0,0,1-3.47-8.82,12.469,12.469,0,0,1,3.73-8.89l.08-.19-.08-.19L86,51.95l-.18-.07-.19.07a12.465,12.465,0,0,1-8.9,3.74,12.922,12.922,0,0,1-8.81-3.481,12.49,12.49,0,0,1-3.96-9.23.258.258,0,0,0-.26-.26H48.71a.252.252,0,0,0-.26.26,12.529,12.529,0,0,1-3.96,9.24,12.977,12.977,0,0,1-8.81,3.471,12.448,12.448,0,0,1-8.9-3.74l-.19-.07-.18.07L15.8,62.55l-.07.19.07.19a12.439,12.439,0,0,1,3.74,8.89,12.989,12.989,0,0,1-3.47,8.82A12.535,12.535,0,0,1,6.83,84.6a.252.252,0,0,0-.26.261V99.849a.265.265,0,0,0,.26.261,12.532,12.532,0,0,1,9.24,3.96,12.962,12.962,0,0,1,3.47,8.81,12.463,12.463,0,0,1-3.74,8.9l-.07.19.07.18,10.61,10.6.18.079.19-.079a12.531,12.531,0,0,1,8.9-3.74,13.029,13.029,0,0,1,8.81,3.48,12.53,12.53,0,0,1,3.96,9.239.258.258,0,0,0,.26.261H63.7a.258.258,0,0,0,.26-.261,12.53,12.53,0,0,1,3.96-9.239,12.959,12.959,0,0,1,8.81-3.471,12.5,12.5,0,0,1,8.9,3.731l.19.079.19-.079,10.59-10.6.08-.18-.08-.19a12.492,12.492,0,0,1-3.73-8.9,12.962,12.962,0,0,1,3.47-8.81,12.532,12.532,0,0,1,9.24-3.96.265.265,0,0,0,.26-.261V84.86A.252.252,0,0,0,105.58,84.6ZM56.2,125.94A32.94,32.94,0,1,1,89.14,93,32.928,32.928,0,0,1,56.2,125.94Z"/><path class="cls-3" d="M58.25,120.219c-.67.05-1.36.081-2.05.081A28.077,28.077,0,0,1,29.11,99.6a8.611,8.611,0,0,0,1.27.74,6.3,6.3,0,0,0,1.59.5c.8.14,1.59.151,2.84.24s2.99.25,5.62.661c1.57.25,2.73.45,3.51.659a5.361,5.361,0,0,1,.84.31.657.657,0,0,1,.28.221.884.884,0,0,1,.19.62,6.732,6.732,0,0,1-.54,1.979,8.663,8.663,0,0,0-.67,2.961,4.543,4.543,0,0,0,.36,1.8,2.667,2.667,0,0,0,.85,1.021,16.857,16.857,0,0,0,2.23,1.459c.98.57,2.22,1.25,3.73,2.091,2.03,1.109,3.57,1.919,4.66,2.65a5.444,5.444,0,0,1,2.06,2.16,2.144,2.144,0,0,0,.22.429C58.17,120.13,58.22,120.18,58.25,120.219Z"/><path class="cls-4" d="M80.69,109.769a28.843,28.843,0,0,1-3.5,4.221A29.683,29.683,0,0,1,26.85,97.4c.13.171.26.341.4.51a10.069,10.069,0,0,0,1.86,1.69A28.077,28.077,0,0,0,56.2,120.3c.69,0,1.38-.031,2.05-.081a1.35,1.35,0,0,0,.64.471,1.5,1.5,0,0,0,.47.079,1.633,1.633,0,0,0,.84-.24,3.488,3.488,0,0,0,.8-.639,28.092,28.092,0,0,0,15.06-7.811c.57-.569,1.11-1.17,1.63-1.79a4.66,4.66,0,0,0,.93.12,3.671,3.671,0,0,0,1.74-.43A2.881,2.881,0,0,0,80.69,109.769Z"/><path class="cls-4" d="M79.66,74.82c-.4-.291-.8-.57-1.21-.81a11.875,11.875,0,0,0-1.53-.731c-.28-.3-.57-.609-.86-.9a28.087,28.087,0,0,0-39.71,0c-.34.339-.68.7-1.01,1.07a6.692,6.692,0,0,0-1.86.47c.55-.66,1.13-1.3,1.74-1.91a29.683,29.683,0,0,1,41.97,0A32.572,32.572,0,0,1,79.66,74.82Z"/><path class="cls-4" d="M85.87,93.519a29.528,29.528,0,0,1-3.3,13.121,2.447,2.447,0,0,0-.12-.71,2.689,2.689,0,0,0-1.08-1.26,27.846,27.846,0,0,0,2.71-9.17,4.114,4.114,0,0,0,1.33-1.18A4.848,4.848,0,0,0,85.87,93.519Z"/><path class="cls-1" d="M56.2,60.06A32.94,32.94,0,1,0,89.14,93,32.941,32.941,0,0,0,56.2,60.06ZM82.26,80.539a15.525,15.525,0,0,1,2.48,6.631c.04.409.07.909.07,1.45a11.5,11.5,0,0,1-.43,3.289,4.552,4.552,0,0,1-.59,1.231,2.029,2.029,0,0,1-.78.67,1.986,1.986,0,0,1-.8.149,5.262,5.262,0,0,1-2.54-.849,10.588,10.588,0,0,1-2.38-1.961,8.578,8.578,0,0,1-1.7-3.68,11.064,11.064,0,0,0-.77-2.029,5.25,5.25,0,0,0-1.68-1.861,5.858,5.858,0,0,0-3.42-.959c-.45.01-.84.029-1.14.029a2.257,2.257,0,0,1-.6-.06.289.289,0,0,1-.15-.089,1.347,1.347,0,0,1-.15-.721,5.673,5.673,0,0,1,.4-1.88,10.248,10.248,0,0,1,1.99-3.209,6.126,6.126,0,0,1,3-1.89,4.467,4.467,0,0,1,.98-.11,6.82,6.82,0,0,1,3.39,1.05A15.2,15.2,0,0,1,82.26,80.539ZM26.54,92.44a29.555,29.555,0,0,1,3.62-13.69,13.233,13.233,0,0,1,2.69-2.291,6.161,6.161,0,0,1,3.09-1.069c.1,0,.21.009.31.019a2.241,2.241,0,0,1,.75.2,15.322,15.322,0,0,1,1.31.849,11.409,11.409,0,0,0,2.46,1.231,14.324,14.324,0,0,0,4.95.849,18.021,18.021,0,0,0,3.82-.429,17.227,17.227,0,0,1,1.91,7.01,6.34,6.34,0,0,1-.59,2.82,3.482,3.482,0,0,0-.22.639,3.318,3.318,0,0,1-.26.71,3.283,3.283,0,0,1-.69.891,10.637,10.637,0,0,0-2.71,3.87,7.912,7.912,0,0,0-.55,2.779,3.54,3.54,0,0,0,.05.65,1.007,1.007,0,0,0,.18.441l1.59,2.109a.993.993,0,0,0,.7.4,1.036,1.036,0,0,0,.77-.26h.01a18.207,18.207,0,0,1,2.88-2.021,12.413,12.413,0,0,1,5.97-1.829,7.267,7.267,0,0,1,1.39.13,2.747,2.747,0,0,1,1.36.69,7.473,7.473,0,0,1,1.87,3.089,26.921,26.921,0,0,1,1.32,6.36c.1.961.15,1.8.17,2.39.01.29.02.531.02.691v.02c-.03.06-.06.12-.1.209-.44.93-1.59,3.271-2.8,5.351a24.043,24.043,0,0,1-1.75,2.69c-.19.24-.36.42-.5.57a7.55,7.55,0,0,0-2.57-2.65c-1.24-.841-2.81-1.651-4.81-2.761-2.02-1.1-3.53-1.94-4.54-2.56a13.611,13.611,0,0,1-1.13-.77,2.721,2.721,0,0,1-.24-.23l-.03-.039a2.6,2.6,0,0,1-.2-1.01,6.8,6.8,0,0,1,.55-2.271,8.051,8.051,0,0,0,.66-2.669,2.978,2.978,0,0,0-.56-1.79,2.768,2.768,0,0,0-.97-.81,7.985,7.985,0,0,0-2.01-.661c-.81-.179-1.78-.339-2.97-.52a64.657,64.657,0,0,0-6.92-.75,12.929,12.929,0,0,1-1.5-.149,3.679,3.679,0,0,1-1.1-.351,7.044,7.044,0,0,1-2.44-1.9,12.521,12.521,0,0,1-2.1-3.76C26.63,92.709,26.58,92.57,26.54,92.44ZM81.09,108a3.483,3.483,0,0,1-1.2,1.1,2.755,2.755,0,0,1-1.27.31,3.927,3.927,0,0,1-3.1-1.729,5.534,5.534,0,0,1-.36-.641,2.629,2.629,0,0,1-.27-1.02.944.944,0,0,1,.11-.459,1.628,1.628,0,0,1,.91-.61,5.493,5.493,0,0,1,1.72-.25,7.079,7.079,0,0,1,2.52.449,2.2,2.2,0,0,1,1.35,1.12,1.024,1.024,0,0,1,.07.4A2.463,2.463,0,0,1,81.09,108Zm1.36-2.07a2.689,2.689,0,0,0-1.08-1.26,5.261,5.261,0,0,0-.85-.451,7.946,7.946,0,0,0-2.89-.519,6.615,6.615,0,0,0-2.04.3,2.575,2.575,0,0,0-1.45,1.06,1.887,1.887,0,0,0-.25.959,3.464,3.464,0,0,0,.36,1.431,6.137,6.137,0,0,0,.43.779,5.02,5.02,0,0,0,3.01,2.06,4.66,4.66,0,0,0,.93.12,3.671,3.671,0,0,0,1.74-.43,2.881,2.881,0,0,0,.33-.21,28.843,28.843,0,0,1-3.5,4.221A29.683,29.683,0,0,1,26.85,97.4c.13.171.26.341.4.51a10.069,10.069,0,0,0,1.86,1.69,8.611,8.611,0,0,0,1.27.74,6.3,6.3,0,0,0,1.59.5c.8.14,1.59.151,2.84.24s2.99.25,5.62.661c1.57.25,2.73.45,3.51.659a5.361,5.361,0,0,1,.84.31.657.657,0,0,1,.28.221.884.884,0,0,1,.19.62,6.732,6.732,0,0,1-.54,1.979,8.663,8.663,0,0,0-.67,2.961,4.543,4.543,0,0,0,.36,1.8,2.667,2.667,0,0,0,.85,1.021,16.857,16.857,0,0,0,2.23,1.459c.98.57,2.22,1.25,3.73,2.091,2.03,1.109,3.57,1.919,4.66,2.65a5.444,5.444,0,0,1,2.06,2.16,2.144,2.144,0,0,0,.22.429c.02.031.07.081.1.12a1.35,1.35,0,0,0,.64.471,1.5,1.5,0,0,0,.47.079,1.633,1.633,0,0,0,.84-.24,3.488,3.488,0,0,0,.8-.639,4.121,4.121,0,0,0,.29-.3,19.153,19.153,0,0,0,1.79-2.56c1.79-2.94,3.53-6.69,3.54-6.7a1.017,1.017,0,0,0,.09-.42A39.509,39.509,0,0,0,66,102.89a18.286,18.286,0,0,0-1.76-5.21,7.6,7.6,0,0,0-1.59-2.04,4.843,4.843,0,0,0-2.3-1.161,9.878,9.878,0,0,0-1.77-.159,14.579,14.579,0,0,0-7.14,2.19A21.372,21.372,0,0,0,49.22,98l-.78-1.05c0-.041-.01-.07-.01-.121a5.609,5.609,0,0,1,.42-2.05,8.586,8.586,0,0,1,2.21-3.149,4.952,4.952,0,0,0,1.29-1.851,4.1,4.1,0,0,0,.21-.669c.05-.17.09-.271.1-.3a8.379,8.379,0,0,0,.79-3.69,19.946,19.946,0,0,0-2.44-8.61,1,1,0,0,0-1.15-.531,16.511,16.511,0,0,1-4.14.56,12.226,12.226,0,0,1-4.26-.729,9.662,9.662,0,0,1-2.54-1.36,7,7,0,0,0-1.06-.64,4.148,4.148,0,0,0-1.4-.39,4.438,4.438,0,0,0-.52-.03,4.066,4.066,0,0,0-.6.06,6.692,6.692,0,0,0-1.86.47c.55-.66,1.13-1.3,1.74-1.91a29.683,29.683,0,0,1,41.97,0,32.572,32.572,0,0,1,2.47,2.81c-.4-.291-.8-.57-1.21-.81a11.875,11.875,0,0,0-1.53-.731,8.065,8.065,0,0,0-2.87-.589,6.326,6.326,0,0,0-1.43.159,7.331,7.331,0,0,0-2.84,1.4,10.676,10.676,0,0,0-2.16,2.3,12.114,12.114,0,0,0-1.41,2.65,7.517,7.517,0,0,0-.53,2.579,3.216,3.216,0,0,0,.53,1.891,2.23,2.23,0,0,0,1.18.83,3.884,3.884,0,0,0,1.19.149c.39,0,.77-.029,1.14-.029a3.877,3.877,0,0,1,2.3.609,3.182,3.182,0,0,1,1.04,1.161,14.837,14.837,0,0,1,.9,2.66,8.98,8.98,0,0,0,1.84,3.429,12.308,12.308,0,0,0,2.85,2.35,7.117,7.117,0,0,0,3.56,1.13,3.676,3.676,0,0,0,1.62-.329c.09-.041.17-.091.25-.13a4.114,4.114,0,0,0,1.33-1.18,4.848,4.848,0,0,0,.46-.8,29.528,29.528,0,0,1-3.3,13.121A2.447,2.447,0,0,0,82.45,105.93Z"/><path class="cls-3" d="M84.08,95.5a27.846,27.846,0,0,1-2.71,9.17,5.261,5.261,0,0,0-.85-.451,7.946,7.946,0,0,0-2.89-.519,6.615,6.615,0,0,0-2.04.3,2.575,2.575,0,0,0-1.45,1.06,1.887,1.887,0,0,0-.25.959,3.464,3.464,0,0,0,.36,1.431,6.137,6.137,0,0,0,.43.779,5.02,5.02,0,0,0,3.01,2.06c-.52.62-1.06,1.221-1.63,1.79A28.092,28.092,0,0,1,61,119.89a4.121,4.121,0,0,0,.29-.3,19.153,19.153,0,0,0,1.79-2.56c1.79-2.94,3.53-6.69,3.54-6.7a1.017,1.017,0,0,0,.09-.42A39.509,39.509,0,0,0,66,102.89a18.286,18.286,0,0,0-1.76-5.21,7.6,7.6,0,0,0-1.59-2.04,4.843,4.843,0,0,0-2.3-1.161,9.878,9.878,0,0,0-1.77-.159,14.579,14.579,0,0,0-7.14,2.19A21.372,21.372,0,0,0,49.22,98l-.78-1.05c0-.041-.01-.07-.01-.121a5.609,5.609,0,0,1,.42-2.05,8.586,8.586,0,0,1,2.21-3.149,4.952,4.952,0,0,0,1.29-1.851,4.1,4.1,0,0,0,.21-.669c.05-.17.09-.271.1-.3a8.379,8.379,0,0,0,.79-3.69,19.946,19.946,0,0,0-2.44-8.61,1,1,0,0,0-1.15-.531,16.511,16.511,0,0,1-4.14.56,12.226,12.226,0,0,1-4.26-.729,9.662,9.662,0,0,1-2.54-1.36,7,7,0,0,0-1.06-.64,4.148,4.148,0,0,0-1.4-.39,4.438,4.438,0,0,0-.52-.03,4.066,4.066,0,0,0-.6.06c.33-.371.67-.731,1.01-1.07a28.087,28.087,0,0,1,39.71,0c.29.29.58.6.86.9a8.065,8.065,0,0,0-2.87-.589,6.326,6.326,0,0,0-1.43.159,7.331,7.331,0,0,0-2.84,1.4,10.676,10.676,0,0,0-2.16,2.3,12.114,12.114,0,0,0-1.41,2.65,7.517,7.517,0,0,0-.53,2.579,3.216,3.216,0,0,0,.53,1.891,2.23,2.23,0,0,0,1.18.83,3.884,3.884,0,0,0,1.19.149c.39,0,.77-.029,1.14-.029a3.877,3.877,0,0,1,2.3.609,3.182,3.182,0,0,1,1.04,1.161,14.837,14.837,0,0,1,.9,2.66,8.98,8.98,0,0,0,1.84,3.429,12.308,12.308,0,0,0,2.85,2.35,7.117,7.117,0,0,0,3.56,1.13,3.676,3.676,0,0,0,1.62-.329C83.92,95.589,84,95.539,84.08,95.5Z"/><path class="cls-5" d="M81.57,106.67a2.463,2.463,0,0,1-.48,1.33,3.483,3.483,0,0,1-1.2,1.1,2.755,2.755,0,0,1-1.27.31,3.927,3.927,0,0,1-3.1-1.729,5.534,5.534,0,0,1-.36-.641,2.629,2.629,0,0,1-.27-1.02.944.944,0,0,1,.11-.459,1.628,1.628,0,0,1,.91-.61,5.493,5.493,0,0,1,1.72-.25,7.079,7.079,0,0,1,2.52.449,2.2,2.2,0,0,1,1.35,1.12A1.024,1.024,0,0,1,81.57,106.67Z"/><path class="cls-5" d="M64.71,109.67v.02c-.03.06-.06.12-.1.209-.44.93-1.59,3.271-2.8,5.351a24.043,24.043,0,0,1-1.75,2.69c-.19.24-.36.42-.5.57a7.55,7.55,0,0,0-2.57-2.65c-1.24-.841-2.81-1.651-4.81-2.761-2.02-1.1-3.53-1.94-4.54-2.56a13.611,13.611,0,0,1-1.13-.77,2.721,2.721,0,0,1-.24-.23l-.03-.039a2.6,2.6,0,0,1-.2-1.01,6.8,6.8,0,0,1,.55-2.271,8.051,8.051,0,0,0,.66-2.669,2.978,2.978,0,0,0-.56-1.79,2.768,2.768,0,0,0-.97-.81,7.985,7.985,0,0,0-2.01-.661c-.81-.179-1.78-.339-2.97-.52a64.657,64.657,0,0,0-6.92-.75,12.929,12.929,0,0,1-1.5-.149,3.679,3.679,0,0,1-1.1-.351,7.044,7.044,0,0,1-2.44-1.9,12.521,12.521,0,0,1-2.1-3.76c-.05-.151-.1-.29-.14-.42a29.555,29.555,0,0,1,3.62-13.69,13.233,13.233,0,0,1,2.69-2.291,6.161,6.161,0,0,1,3.09-1.069c.1,0,.21.009.31.019a2.241,2.241,0,0,1,.75.2,15.322,15.322,0,0,1,1.31.849,11.409,11.409,0,0,0,2.46,1.231,14.324,14.324,0,0,0,4.95.849,18.021,18.021,0,0,0,3.82-.429,17.227,17.227,0,0,1,1.91,7.01,6.34,6.34,0,0,1-.59,2.82,3.482,3.482,0,0,0-.22.639,3.318,3.318,0,0,1-.26.71,3.283,3.283,0,0,1-.69.891,10.637,10.637,0,0,0-2.71,3.87,7.912,7.912,0,0,0-.55,2.779,3.54,3.54,0,0,0,.05.65,1.007,1.007,0,0,0,.18.441l1.59,2.109a.993.993,0,0,0,.7.4,1.036,1.036,0,0,0,.77-.26h.01a18.207,18.207,0,0,1,2.88-2.021,12.413,12.413,0,0,1,5.97-1.829,7.267,7.267,0,0,1,1.39.13,2.747,2.747,0,0,1,1.36.69,7.473,7.473,0,0,1,1.87,3.089,26.921,26.921,0,0,1,1.32,6.36c.1.961.15,1.8.17,2.39C64.7,109.269,64.71,109.51,64.71,109.67Z"/><path class="cls-5" d="M84.81,88.62a11.5,11.5,0,0,1-.43,3.289,4.552,4.552,0,0,1-.59,1.231,2.029,2.029,0,0,1-.78.67,1.986,1.986,0,0,1-.8.149,5.262,5.262,0,0,1-2.54-.849,10.588,10.588,0,0,1-2.38-1.961,8.578,8.578,0,0,1-1.7-3.68,11.064,11.064,0,0,0-.77-2.029,5.25,5.25,0,0,0-1.68-1.861,5.858,5.858,0,0,0-3.42-.959c-.45.01-.84.029-1.14.029a2.257,2.257,0,0,1-.6-.06.289.289,0,0,1-.15-.089,1.347,1.347,0,0,1-.15-.721,5.673,5.673,0,0,1,.4-1.88,10.248,10.248,0,0,1,1.99-3.209,6.126,6.126,0,0,1,3-1.89,4.467,4.467,0,0,1,.98-.11,6.82,6.82,0,0,1,3.39,1.05,15.2,15.2,0,0,1,4.82,4.8,15.525,15.525,0,0,1,2.48,6.631C84.78,87.579,84.81,88.079,84.81,88.62Z"/><path class="cls-1" d="M141,33.93a2.635,2.635,0,0,1-2-.841,2.91,2.91,0,0,1-.77-1.94,2.671,2.671,0,0,1,.82-1.92,3.015,3.015,0,0,0,.88-2.119,3.06,3.06,0,0,0-.88-2.131l-4.71-4.71a3.02,3.02,0,0,0-4.26,0,2.63,2.63,0,0,1-1.91.82,2.909,2.909,0,0,1-1.94-.769,2.636,2.636,0,0,1-.84-2,3.01,3.01,0,0,0-3.01-3h-6.66a3,3,0,0,0-3.01,3,2.672,2.672,0,0,1-.84,2,2.934,2.934,0,0,1-1.95.769,2.662,2.662,0,0,1-1.91-.82l-.58-.589h-.27a3.186,3.186,0,0,0-1.28-.29,3.02,3.02,0,0,0-2.12.879l-4.71,4.71a2.952,2.952,0,0,0-.88,2.091v.04a2.988,2.988,0,0,0,.88,2.119,2.619,2.619,0,0,1,.81,1.92,2.815,2.815,0,0,1-.77,1.94,2.612,2.612,0,0,1-1.99.841,3.019,3.019,0,0,0-3.01,3.01V43.6A3.02,3.02,0,0,0,97.1,46.61a2.647,2.647,0,0,1,1.99.84,2.837,2.837,0,0,1,.77,1.949,2.616,2.616,0,0,1-.81,1.911,2.926,2.926,0,0,0-.88,2.08v.04a2.942,2.942,0,0,0,.88,2.13l4.71,4.709a2.93,2.93,0,0,0,2.12.88,3.026,3.026,0,0,0,1.28-.289h.26l.59-.591a2.617,2.617,0,0,1,1.91-.81,2.849,2.849,0,0,1,1.95.77,2.647,2.647,0,0,1,.84,1.99,3.012,3.012,0,0,0,3.01,3.01h6.66a3.025,3.025,0,0,0,3.01-3.01,2.612,2.612,0,0,1,.84-1.99,2.825,2.825,0,0,1,1.94-.77,2.623,2.623,0,0,1,1.92.81,2.93,2.93,0,0,0,2.12.88,3.01,3.01,0,0,0,2.13-.88l4.71-4.709a3.006,3.006,0,0,0,0-4.25,2.668,2.668,0,0,1-.82-1.911A2.932,2.932,0,0,1,139,47.45a2.67,2.67,0,0,1,2-.84,3,3,0,0,0,3-3.011V36.94A3,3,0,0,0,141,33.93Zm-1,8.76a6.6,6.6,0,0,0-3.92,2.029,6.933,6.933,0,0,0-1.85,4.68,6.669,6.669,0,0,0,1.34,3.981l-3.41,3.42a6.574,6.574,0,0,0-3.99-1.341A6.851,6.851,0,0,0,123.5,57.3a6.657,6.657,0,0,0-2.04,3.929h-4.83A6.591,6.591,0,0,0,114.6,57.3a6.876,6.876,0,0,0-4.68-1.841,6.546,6.546,0,0,0-3.98,1.341l-3.42-3.42a6.539,6.539,0,0,0,1.34-3.981,6.877,6.877,0,0,0-1.84-4.68,6.6,6.6,0,0,0-3.93-2.029V37.86a6.692,6.692,0,0,0,3.93-2.04,6.851,6.851,0,0,0,1.84-4.671,6.569,6.569,0,0,0-1.34-3.99l3.42-3.409a6.674,6.674,0,0,0,3.98,1.339,6.931,6.931,0,0,0,4.68-1.849,6.6,6.6,0,0,0,2.03-3.92h4.83a6.668,6.668,0,0,0,2.04,3.92,6.906,6.906,0,0,0,4.67,1.849,6.7,6.7,0,0,0,3.99-1.339l3.41,3.409a6.7,6.7,0,0,0-1.34,3.99,6.907,6.907,0,0,0,1.85,4.671A6.665,6.665,0,0,0,140,37.86Z"/><path class="cls-2" d="M136.08,35.82a6.907,6.907,0,0,1-1.85-4.671,6.7,6.7,0,0,1,1.34-3.99l-3.41-3.409a6.7,6.7,0,0,1-3.99,1.339,6.906,6.906,0,0,1-4.67-1.849,6.668,6.668,0,0,1-2.04-3.92h-4.83a6.6,6.6,0,0,1-2.03,3.92,6.931,6.931,0,0,1-4.68,1.849,6.674,6.674,0,0,1-3.98-1.339l-3.42,3.409a6.569,6.569,0,0,1,1.34,3.99,6.851,6.851,0,0,1-1.84,4.671,6.692,6.692,0,0,1-3.93,2.04v4.83a6.6,6.6,0,0,1,3.93,2.029,6.877,6.877,0,0,1,1.84,4.68,6.539,6.539,0,0,1-1.34,3.981l3.42,3.42a6.546,6.546,0,0,1,3.98-1.341A6.876,6.876,0,0,1,114.6,57.3a6.591,6.591,0,0,1,2.03,3.929h4.83A6.657,6.657,0,0,1,123.5,57.3a6.851,6.851,0,0,1,4.67-1.841,6.574,6.574,0,0,1,3.99,1.341l3.41-3.42a6.669,6.669,0,0,1-1.34-3.981,6.933,6.933,0,0,1,1.85-4.68A6.6,6.6,0,0,1,140,42.69V37.86A6.665,6.665,0,0,1,136.08,35.82ZM119.05,52.479a12.2,12.2,0,1,1,12.2-12.21A12.214,12.214,0,0,1,119.05,52.479Z"/><path class="cls-4" d="M119.05,28.07a12.2,12.2,0,1,0,12.2,12.2A12.2,12.2,0,0,0,119.05,28.07Zm7.21,19.42a10.2,10.2,0,1,1,2.99-7.221A10.152,10.152,0,0,1,126.26,47.49Z"/><path class="cls-3" d="M129.25,40.269a10.209,10.209,0,1,1-2.99-7.209A10.174,10.174,0,0,1,129.25,40.269Z"/></g></svg>